<svg xmlns="http://www.w3.org/2000/svg" viewBox="0 0 1400 780">
  <defs><linearGradient id="g" x1="0" x2="1"><stop stop-color="#dfe7f2"/><stop offset="1" stop-color="#061a2f"/></linearGradient><filter id="glow"><feGaussianBlur stdDeviation="5" result="b"/><feMerge><feMergeNode in="b"/><feMergeNode in="SourceGraphic"/></feMerge></filter></defs>
  <rect width="1400" height="780" fill="url(#g)"/>
  <rect width="1400" height="780" fill="#061a2f" opacity=".46"/>
  <g transform="translate(300 130)" fill="none" stroke="#fff" stroke-width="3" opacity=".78">
    <circle cx="360" cy="250" r="98"/><rect x="318" y="208" width="84" height="84" rx="10" fill="#ef7d20" opacity=".55" stroke="#fff"/><text x="360" y="263" text-anchor="middle" font-size="42" fill="#fff" font-family="Arial">AI</text>
    <g stroke-dasharray="4 10"><path d="M262 250H95M458 250h170M360 152V45M360 348v120M292 180L160 85M430 180l120-95M292 320l-120 95M430 320l125 95"/></g>
    <g><circle cx="95" cy="250" r="46"/><path d="M75 250h40M95 230v40"/><circle cx="630" cy="250" r="46"/><path d="M610 250h40M630 230v40"/><circle cx="360" cy="45" r="44"/><path d="M344 45h32"/><circle cx="360" cy="468" r="44"/><path d="M340 468h40M360 448v40"/><circle cx="160" cy="85" r="38"/><circle cx="550" cy="85" r="38"/><circle cx="172" cy="415" r="38"/><circle cx="555" cy="415" r="38"/></g>
  </g>
  <circle cx="980" cy="120" r="130" fill="#ef7d20" opacity=".10" filter="url(#glow)"/>
</svg>
