<svg xmlns="http://www.w3.org/2000/svg" viewBox="0 0 900 520" role="img" aria-label="Management consulting diagnosis">
  <defs>
    <linearGradient id="bg" x1="0" x2="1" y1="0" y2="1">
      <stop offset="0" stop-color="#061426"/>
      <stop offset="1" stop-color="#153f6f"/>
    </linearGradient>
    <linearGradient id="lineA" x1="0" x2="1">
      <stop offset="0" stop-color="#ef7d20"/>
      <stop offset="1" stop-color="#f6c46f"/>
    </linearGradient>
  </defs>
  <rect width="900" height="520" rx="42" fill="url(#bg)"/>
  <g stroke="#ffffff" opacity=".12">
    <path d="M92 102h704M92 198h704M92 294h704M92 390h704"/>
    <path d="M170 68v384M316 68v384M462 68v384M608 68v384M754 68v384"/>
  </g>
  <path d="M130 350c80-64 139-74 218-28s139 18 207-70 128-110 215-48" fill="none" stroke="url(#lineA)" stroke-width="16" stroke-linecap="round"/>
  <path d="M130 395c86-38 155-34 236 8 90 47 161 24 230-52 58-64 110-76 174-54" fill="none" stroke="#28aaa5" stroke-width="12" stroke-linecap="round"/>
  <g>
    <circle cx="685" cy="148" r="70" fill="none" stroke="#28aaa5" stroke-width="12"/>
    <path d="M685 78a70 70 0 0 1 53 116" fill="none" stroke="#ef7d20" stroke-width="12" stroke-linecap="round"/>
    <text x="685" y="158" fill="#ffffff" font-family="Arial, sans-serif" font-size="28" font-weight="700" text-anchor="middle">76%</text>
  </g>
  <g>
    <circle cx="214" cy="170" r="54" fill="#ffffff" opacity=".08"/>
    <path d="M184 170h60M214 140v60" stroke="#ffffff" stroke-width="10" stroke-linecap="round" opacity=".72"/>
  </g>
  <g fill="#ffffff" font-family="Arial, sans-serif" font-weight="700">
    <rect x="96" y="74" width="170" height="54" rx="16" fill="#ffffff" opacity=".1"/>
    <text x="126" y="109" font-size="20">DIAGNOSIS</text>
    <rect x="596" y="404" width="204" height="54" rx="16" fill="#ffffff" opacity=".1"/>
    <text x="626" y="439" font-size="20">ACTION PLAN</text>
  </g>
</svg>
