<svg xmlns="http://www.w3.org/2000/svg" viewBox="0 0 900 520" role="img" aria-label="Training needs analysis">
  <defs>
    <linearGradient id="bg" x1="0" x2="1" y1="0" y2="1">
      <stop offset="0" stop-color="#081a2f"/>
      <stop offset="1" stop-color="#174575"/>
    </linearGradient>
    <linearGradient id="bar" x1="0" x2="0" y1="0" y2="1">
      <stop offset="0" stop-color="#ef7d20"/>
      <stop offset="1" stop-color="#f5bd73"/>
    </linearGradient>
  </defs>
  <rect width="900" height="520" rx="42" fill="url(#bg)"/>
  <circle cx="124" cy="420" r="210" fill="#ffffff" opacity=".05"/>
  <circle cx="790" cy="94" r="170" fill="#ef7d20" opacity=".08"/>
  <g stroke="#ffffff" opacity=".14">
    <path d="M110 108h650M110 190h650M110 272h650M110 354h650M110 436h650"/>
    <path d="M230 84v372M360 84v372M490 84v372M620 84v372"/>
  </g>
  <g fill="#ffffff" opacity=".96">
    <rect x="116" y="94" width="150" height="56" rx="16"/>
    <rect x="116" y="176" width="150" height="56" rx="16"/>
    <rect x="116" y="258" width="150" height="56" rx="16"/>
    <rect x="116" y="340" width="150" height="56" rx="16"/>
  </g>
  <g fill="#334c68" font-family="Arial, sans-serif" font-size="20" font-weight="700">
    <text x="145" y="130">Leadership</text>
    <text x="145" y="212">Sales</text>
    <text x="145" y="294">Operations</text>
    <text x="145" y="376">Digital</text>
  </g>
  <g>
    <rect x="324" y="107" width="322" height="30" rx="15" fill="#ffffff" opacity=".2"/>
    <rect x="324" y="107" width="242" height="30" rx="15" fill="url(#bar)"/>
    <rect x="324" y="189" width="322" height="30" rx="15" fill="#ffffff" opacity=".2"/>
    <rect x="324" y="189" width="184" height="30" rx="15" fill="url(#bar)"/>
    <rect x="324" y="271" width="322" height="30" rx="15" fill="#ffffff" opacity=".2"/>
    <rect x="324" y="271" width="282" height="30" rx="15" fill="url(#bar)"/>
    <rect x="324" y="353" width="322" height="30" rx="15" fill="#ffffff" opacity=".2"/>
    <rect x="324" y="353" width="134" height="30" rx="15" fill="url(#bar)"/>
  </g>
  <g fill="none" stroke="#39b8b0" stroke-width="12" stroke-linecap="round" stroke-linejoin="round">
    <path d="M708 142l34 34 72-82"/>
    <path d="M708 306l34 34 72-82"/>
  </g>
  <g fill="#ffffff" opacity=".92" font-family="Arial, sans-serif" font-weight="700" text-anchor="middle">
    <text x="484" y="454" font-size="26">SKILLS GAP MATRIX</text>
  </g>
</svg>
